<svg width="127" height="56" viewBox="0 0 127 56" fill="none" xmlns="http://www.w3.org/2000/svg">
<path d="M5.34178 16.4091H15.41C20.5752 16.4091 24.777 12.8903 24.777 8.56271C24.777 4.23509 20.5752 0.716309 15.41 0.716309H0.766602V24.661H5.34178V16.4091ZM19.8697 8.56271C19.8697 10.5486 17.8688 12.1642 15.41 12.1642H5.34178V4.96118H15.41C17.8688 4.96118 19.8697 6.5768 19.8697 8.56064V8.56271Z" fill="#AEFF58"/>
<path d="M52.9645 16.4091H63.0327C68.1979 16.4091 72.3997 12.8903 72.3997 8.56271C72.3997 4.23509 68.1979 0.716309 63.0327 0.716309H48.3914V24.661H52.9665V16.4091H52.9645ZM67.4924 8.56271C67.4924 10.5486 65.4915 12.1642 63.0327 12.1642H52.9645V4.96118H63.0327C65.4915 4.96118 67.4924 6.5768 67.4924 8.56064V8.56271Z" fill="#AEFF58"/>
<path d="M52.9645 47.5734H63.0327C68.1979 47.5734 72.3997 44.0546 72.3997 39.727C72.3997 35.3994 68.1979 31.8806 63.0327 31.8806H48.3914V55.8253H52.9665V47.5734H52.9645ZM67.4924 39.727C67.4924 41.7129 65.4915 43.3285 63.0327 43.3285H52.9645V36.1276H63.0327C65.4915 36.1276 67.4924 37.7432 67.4924 39.727Z" fill="#AEFF58"/>
<path d="M124.798 8.56271C124.798 4.23715 120.596 0.716309 115.431 0.716309H100.789V24.661H105.364V16.4091H115.433C116.045 16.4091 116.66 16.3574 117.262 16.2581L121.26 24.661H126.217L121.427 14.5928C123.576 13.0972 124.798 10.923 124.798 8.56271ZM119.89 8.56271C119.89 10.5486 117.889 12.1642 115.431 12.1642H105.362V4.96118H115.431C117.889 4.96118 119.89 6.5768 119.89 8.56064V8.56271Z" fill="#AEFF58"/>
<path d="M96.6267 20.414H79.312V14.81H96.6267V10.5652H79.312V4.96118H96.6267V0.716309H74.7368V24.661H96.6267V20.414Z" fill="#AEFF58"/>
<path d="M31.9244 0.716309L21.8665 24.661H26.8005L30.0205 16.9987H38.4324L41.6523 24.661H46.5864L36.5264 0.716309H31.9265H31.9244ZM36.6481 12.7517H31.8027L34.2244 6.98432L36.6481 12.7517Z" fill="#AEFF58"/>
<path d="M34.2552 49.5571L26.8294 31.8826H21.8953L31.9532 55.8272H36.5532L46.6111 31.8826H41.677L34.2511 49.5571H34.2552Z" fill="#AEFF58"/>
<path d="M75.0503 55.8563V31.8496H79.6378L92.3361 47.8527V31.8496H96.9237V55.8563H92.3361L79.6378 39.8491V55.8563H75.0503Z" fill="#AEFF58"/>
</svg>
